<svg xmlns="http://www.w3.org/2000/svg" xmlns:xlink="http://www.w3.org/1999/xlink" width="2000" zoomAndPan="magnify" viewBox="0 0 1500 1499.999933" height="2000" preserveAspectRatio="xMidYMid meet" version="1.0"><defs><clipPath id="0a34d776d5"><path d="M 307 172 L 1193 172 L 1193 1104 L 307 1104 Z M 307 172 " clip-rule="nonzero"/></clipPath><clipPath id="7fca968426"><path d="M 307.285156 172.199219 L 307.285156 284.113281 L 1080.773438 284.113281 L 1080.773438 725.207031 L 968.859375 725.207031 L 968.859375 833.773438 L 860.292969 725.207031 L 639.679688 725.207031 L 639.679688 396.027344 L 527.765625 396.027344 L 527.765625 837.121094 L 813.839844 837.121094 L 937 960.277344 L 1080.773438 1103.917969 L 1080.773438 837.121094 L 1192.683594 837.121094 L 1192.683594 172.199219 Z M 307.285156 172.199219 " clip-rule="nonzero"/></clipPath><clipPath id="5be97d01b8"><path d="M 0.199219 0.078125 L 885.800781 0.078125 L 885.800781 932 L 0.199219 932 Z M 0.199219 0.078125 " clip-rule="nonzero"/></clipPath><clipPath id="9a00d48997"><path d="M 0.285156 0.199219 L 0.285156 112.113281 L 773.773438 112.113281 L 773.773438 553.207031 L 661.859375 553.207031 L 661.859375 661.773438 L 553.292969 553.207031 L 332.679688 553.207031 L 332.679688 224.027344 L 220.765625 224.027344 L 220.765625 665.121094 L 506.839844 665.121094 L 630 788.277344 L 773.773438 931.917969 L 773.773438 665.121094 L 885.683594 665.121094 L 885.683594 0.199219 Z M 0.285156 0.199219 " clip-rule="nonzero"/></clipPath><clipPath id="3d0719ee55"><rect x="0" width="886" y="0" height="932"/></clipPath><clipPath id="bb8b61dfc2"><path d="M 307 396 L 976 396 L 976 1328 L 307 1328 Z M 307 396 " clip-rule="nonzero"/></clipPath><clipPath id="cfbf05aec0"><path d="M 307.285156 396.027344 L 307.285156 1060.945312 L 419.199219 1060.945312 L 419.199219 1327.742188 L 531.109375 1215.832031 L 562.972656 1184.105469 L 686.265625 1060.945312 L 975.417969 1060.945312 L 975.417969 998.699219 L 940.34375 963.625 L 863.503906 886.917969 L 863.503906 949.167969 L 639.679688 949.167969 L 531.109375 1057.734375 L 531.109375 949.03125 L 419.199219 949.03125 L 419.199219 507.9375 L 639.679688 507.9375 L 639.679688 396.027344 Z M 307.285156 396.027344 " clip-rule="nonzero"/></clipPath><clipPath id="474af4655f"><path d="M 0.199219 0 L 668.601562 0 L 668.601562 931.917969 L 0.199219 931.917969 Z M 0.199219 0 " clip-rule="nonzero"/></clipPath><clipPath id="ad3961e1ae"><path d="M 0.285156 0.0273438 L 0.285156 664.945312 L 112.199219 664.945312 L 112.199219 931.742188 L 224.109375 819.832031 L 255.972656 788.105469 L 379.265625 664.945312 L 668.417969 664.945312 L 668.417969 602.699219 L 633.34375 567.625 L 556.503906 490.917969 L 556.503906 553.167969 L 332.679688 553.167969 L 224.109375 661.734375 L 224.109375 553.03125 L 112.199219 553.03125 L 112.199219 111.9375 L 332.679688 111.9375 L 332.679688 0.0273438 Z M 0.285156 0.0273438 " clip-rule="nonzero"/></clipPath><clipPath id="0593caff43"><rect x="0" width="669" y="0" height="932"/></clipPath></defs><rect x="-150" width="1800" fill="#ffffff" y="-149.999993" height="1799.99992" fill-opacity="1"/><rect x="-150" width="1800" fill="#ffffff" y="-149.999993" height="1799.99992" fill-opacity="1"/><g clip-path="url(#0a34d776d5)"><g clip-path="url(#7fca968426)"><g transform="matrix(1, 0, 0, 1, 307, 172)"><g clip-path="url(#3d0719ee55)"><g clip-path="url(#5be97d01b8)"><g clip-path="url(#9a00d48997)"><rect x="-637" width="2160" fill="#98c739" height="2159.999904" y="-501.999985" fill-opacity="1"/></g></g></g></g></g></g><g clip-path="url(#bb8b61dfc2)"><g clip-path="url(#cfbf05aec0)"><g transform="matrix(1, 0, 0, 1, 307, 396)"><g clip-path="url(#0593caff43)"><g clip-path="url(#474af4655f)"><g clip-path="url(#ad3961e1ae)"><rect x="-637" width="2160" fill="#98c739" height="2159.999904" y="-725.999985" fill-opacity="1"/></g></g></g></g></g></g></svg>